PathFileType	4	(X/Y/Z)	C:\Users\Willi\SynologyDrive\Deimel_MSc_Deadlift\Athlete_03\Athlete_3_22_07_06\dl_90\marker_experimental.trc
DataRate	CameraRate	NumFrames	NumMarkers	Units	OrigDataRate	OrigDataStartFrame	OrigNumFrames
200.000000	200.000000	4	59	mm	200.000000	2021	5390
Frame#	Time	BR			GLAB			RFHD			LFHD			C7			T6			SPINMOL			SPINM2			SPINM3			T12			BELTOL			BELT2			BELT3			SACROL			SACR2			SACR3			LTHOL			LTH2			LTH3			LSHAOL			LSHA2			LSHA3			LHEE			LTOE			LM5			RTHOL			RTH2			RTH3			RSHAOL			RSHA2			RSHA3			RHEE			RTOE			RM5			STRN			XIPH			LACR			LUAOL			LUA2			LUA3			LLAOL			LLA2			LLA3			LWRU			RACR			RUAOL			RUA2			RUA3			RLAOL			RLA2			RLA3			RWRU			BL			USERMO0			USERMO1			USERMO2			USERMO3			USERMO4			USERMO5			
		X1	Y1	Z1	X2	Y2	Z2	X3	Y3	Z3	X4	Y4	Z4	X5	Y5	Z5	X6	Y6	Z6	X7	Y7	Z7	X8	Y8	Z8	X9	Y9	Z9	X10	Y10	Z10	X11	Y11	Z11	X12	Y12	Z12	X13	Y13	Z13	X14	Y14	Z14	X15	Y15	Z15	X16	Y16	Z16	X17	Y17	Z17	X18	Y18	Z18	X19	Y19	Z19	X20	Y20	Z20	X21	Y21	Z21	X22	Y22	Z22	X23	Y23	Z23	X24	Y24	Z24	X25	Y25	Z25	X26	Y26	Z26	X27	Y27	Z27	X28	Y28	Z28	X29	Y29	Z29	X30	Y30	Z30	X31	Y31	Z31	X32	Y32	Z32	X33	Y33	Z33	X34	Y34	Z34	X35	Y35	Z35	X36	Y36	Z36	X37	Y37	Z37	X38	Y38	Z38	X39	Y39	Z39	X40	Y40	Z40	X41	Y41	Z41	X42	Y42	Z42	X43	Y43	Z43	X44	Y44	Z44	X45	Y45	Z45	X46	Y46	Z46	X47	Y47	Z47	X48	Y48	Z48	X49	Y49	Z49	X50	Y50	Z50	X51	Y51	Z51	X52	Y52	Z52	X53	Y53	Z53	X54	Y54	Z54	X55	Y55	Z55	X56	Y56	Z56	X57	Y57	Z57	X58	Y58	Z58	X59	Y59	Z59	

2022	10.105	262.9689636230469	251.2636566162109	-105.2535095214844	613.702392578125	752.1854248046876	-1217.866455078125	617.1126708984375	816.6823120117189	-1143.06787109375	610.5970458984375	812.1796875000001	-1298.787353515625	475.5413208007812	962.4600830078126	-1217.65380859375	291.6506042480469	1041.361572265625	-1223.847412109375	257.6553955078125	1053.129150390625	-1223.846313476562	198.1078033447266	1058.60693359375	-1170.475708007812	195.7669677734375	1057.645263671875	-1220.292236328125	135.0333557128906	1049.4091796875	-1222.229614257812	51.10783386230469	1070.216674804688	-1224.049438476562	-3.132200002670288	1045.644775390625	-1170.604248046875	-7.553182125091553	1049.567504882812	-1220.52783203125	-67.43534851074219	998.0263671875001	-1238.850341796875	-55.1745491027832	1000.388793945313	-1189.378662109375	-114.4874954223633	973.7305908203126	-1199.210083007812	28.14348602294922	727.8239135742189	-1449.875732421875	12.83382511138916	649.3619995117189	-1443.37109375	57.10586929321289	673.0178833007814	-1450.062255859375	112.1016540527344	346.6473083496095	-1463.199829101562	71.49330902099609	279.4101562500001	-1456.308471679688	120.6668930053711	285.3121643066407	-1458.705688476562	43.42763137817383	65.95749664306649	-1379.168334960938	253.5406341552734	74.29181671142587	-1385.280395507812	209.7669982910156	58.70287704467783	-1490.551391601562	37.56048202514648	702.4046020507814	-980.7467041015625	109.1374664306641	667.7836914062501	-972.1236572265625	63.92025756835938	646.2817993164064	-975.2564086914062	99.52969360351562	349.9231567382813	-953.4970092773438	140.3119812011719	281.6790161132813	-952.4729614257812	91.47486877441406	289.7282409667969	-961.477294921875	51.62599945068359	71.05183410644538	-1056.499633789062	261.9665222167969	74.18825531005865	-1024.159301757812	205.0715179443359	63.31612014770513	-931.6441650390625	397.8046264648438	807.8185424804689	-1227.135620117188	244.5492248535156	772.7662353515626	-1216.15771484375	422.5898742675781	846.3790893554689	-1417.6259765625	366.0312194824219	741.5957031250001	-1493.366577148438	323.6952819824219	695.1607666015626	-1515.91259765625	363.6203918457031	675.7461547851564	-1489.644897460938	306.0504150390625	462.451873779297	-1499.681274414062	274.678955078125	405.8966064453126	-1510.778564453125	305.9245300292969	404.2340393066407	-1472.034301757812	270.4013366699219	314.8163452148439	-1489.679443359375	441.3067016601562	831.6051635742189	-1041.036865234375	390.1394958496094	687.9427490234376	-991.800537109375	368.5525512695312	632.6062622070314	-1019.020812988281	374.290283203125	628.2907714843751	-969.1026000976562	321.1893615722656	440.9467773437501	-966.2971801757812	301.8189697265625	387.4578247070313	-997.8898315429688	305.4685668945312	381.2224426269532	-947.4237060546875	280.131103515625	309.7343444824219	-943.30419921875	214.3842315673828	251.063186645508	-2327.697509765625	0.03319460153579712	0.007885890081524851	-0.03698369860649109	0.008329980075359344	0.01258859969675541	-0.006608359981328248	0.008647579699754715	0.007035689894109965	-0.007832550443708897	0.009376809932291508	2.141210079193115	-2.09375	2.008620023727417	2.772589921951294	-1.960630059242248	2.924540042877197	0	0	
2023	10.11	262.8987121582031	251.2652587890625	-105.2516937255859	613.5573120117188	752.2124633789064	-1217.677001953125	616.9862060546875	816.6911010742189	-1142.870361328125	610.4668579101562	812.2354736328126	-1298.587280273438	475.4503479003906	962.5065307617189	-1217.478515625	291.5612182617188	1041.431762695312	-1223.751220703125	257.5584411621094	1053.188842773438	-1223.767822265625	197.9814605712891	1058.677978515625	-1170.432006835938	195.6680450439453	1057.702026367188	-1220.2490234375	134.9278411865234	1049.452880859375	-1222.22998046875	51.00418853759766	1070.213989257812	-1224.076782226562	-3.270674705505371	1045.633422851562	-1170.672119140625	-7.656345367431641	1049.557983398438	-1220.599243164062	-67.52700805664062	998.0133666992189	-1238.9560546875	-55.29563903808594	1000.378051757813	-1189.484130859375	-114.5942764282227	973.7086791992189	-1199.366943359375	28.22108459472656	727.8222045898439	-1449.94482421875	12.90399074554443	649.3566894531251	-1443.461547851562	57.18079376220703	673.0140991210939	-1450.12548828125	112.1351928710938	346.6358032226564	-1463.210571289062	71.52013397216797	279.4046325683595	-1456.3173828125	120.6959915161133	285.2982788085939	-1458.711303710938	43.42834854125977	65.96041107177743	-1379.166625976562	253.5329284667969	74.28775787353524	-1385.27978515625	209.7701110839844	58.70557022094736	-1490.550659179688	37.34386444091797	702.4012451171876	-980.7796630859375	108.906494140625	667.7684326171876	-972.1085205078125	63.6904182434082	646.2739868164064	-975.2647705078125	99.31111907958984	349.9266662597657	-953.23486328125	140.078125	281.6715393066407	-952.2551879882812	91.22807312011719	289.7291870117188	-961.1869506835938	51.32508850097656	70.94104003906257	-1055.934204101562	261.7320251464844	74.24951934814459	-1024.168823242188	205.1014404296875	63.26674270629888	-931.4979248046875	397.6999206542969	807.8677368164064	-1226.921020507812	244.4380340576172	772.8198242187501	-1215.993896484375	422.5323181152344	846.3256225585939	-1417.457397460938	365.9259338378906	741.5569458007814	-1493.226440429688	323.5690612792969	695.1409912109376	-1515.769287109375	363.4979858398438	675.7086791992189	-1489.520629882812	305.9889221191406	462.4061889648439	-1499.604248046875	274.5895690917969	405.8647460937501	-1510.713500976562	305.8017883300781	404.1794433593751	-1471.934326171875	270.2793273925781	314.7937622070314	-1489.652099609375	441.1463012695312	831.7465820312501	-1040.806762695312	390.0029296875	688.0819091796876	-991.6497192382812	368.474365234375	632.7581787109376	-1018.934143066406	374.1419982910156	628.4155273437501	-969.010009765625	321.0920104980469	441.0482788085938	-966.3690185546875	301.7905578613281	387.5652160644532	-998.016845703125	305.3811340332031	381.2983398437501	-947.5425415039062	280.0856323242188	309.8192443847657	-943.5115356445312	214.3228912353516	251.0649719238283	-2327.697265625	0.03302130103111267	0.007884079590439798	-0.03827520087361336	0.008395450189709663	0.01277210004627705	-0.006597590167075395	0.008631159551441669	0.006970589980483056	-0.007760140113532543	0.007678300142288208	2.138180017471313	-2.092309951782227	2.012379884719849	2.774029970169067	-1.957690000534057	2.92497992515564	0	0	
2024	10.115	262.8292541503906	251.2673645019531	-105.2491683959961	613.4295043945312	752.2551269531251	-1217.476928710938	616.866943359375	816.7108764648439	-1142.669067382812	610.3461303710938	812.3018188476564	-1298.38330078125	475.3594360351562	962.5526123046876	-1217.297729492188	291.4678344726562	1041.495361328125	-1223.653930664062	257.4586181640625	1053.242309570312	-1223.688110351562	197.8537902832031	1058.74072265625	-1170.3857421875	195.5664978027344	1057.750610351562	-1220.203247070312	134.8202209472656	1049.487915039062	-1222.224609375	50.89581298828125	1070.200927734375	-1224.092041015625	-3.412675142288208	1045.606811523438	-1170.728637695312	-7.763645648956299	1049.536254882812	-1220.658569335938	-67.62090301513672	997.9904174804689	-1239.054565429688	-55.4193115234375	1000.353576660156	-1189.579956054688	-114.703010559082	973.6718750000001	-1199.513916015625	28.29510307312012	727.8176879882814	-1450.019165039062	12.97304821014404	649.3480834960939	-1443.556396484375	57.25321578979492	673.0077514648439	-1450.196533203125	112.170295715332	346.6236572265626	-1463.2314453125	71.54777526855469	279.3990783691407	-1456.334106445312	120.7255935668945	285.283660888672	-1458.7255859375	43.42942428588867	65.96298217773446	-1379.16650390625	253.5236206054688	74.28405761718759	-1385.282836914062	209.7727355957031	58.70642089843759	-1490.551879882812	37.11088943481445	702.3449707031251	-980.8331298828125	108.6552276611328	667.6910400390626	-972.1177978515625	63.43835830688477	646.2094726562501	-975.3037719726562	99.06230926513672	349.8581237792969	-953.0487670898438	139.8225860595703	281.5972290039063	-952.109130859375	90.96070861816406	289.6576843261719	-960.976806640625	51.0556526184082	70.75131988525398	-1055.460571289062	261.5120849609375	74.2901229858399	-1024.205444335938	205.1356201171875	63.23750686645513	-931.39306640625	397.596435546875	807.9149169921876	-1226.69921875	244.3296203613281	772.8671264648439	-1215.818725585938	422.4830932617188	846.2726440429689	-1417.28125	365.848876953125	741.5098266601564	-1493.072875976562	323.4737548828125	695.1141967773439	-1515.61962890625	363.3987731933594	675.6641235351564	-1489.376220703125	305.9281616210938	462.3589782714845	-1499.512329101562	274.5050048828125	405.8343200683595	-1510.641845703125	305.6859741210938	404.1246032714845	-1471.830932617188	270.1586608886719	314.7720336914064	-1489.62255859375	440.9774780273438	831.8870239257814	-1040.5654296875	389.8529663085938	688.2249145507814	-991.4781494140625	368.39208984375	632.9134521484376	-1018.830871582031	373.9748229980469	628.5447387695314	-968.9002075195312	320.9806518554688	441.1582946777344	-966.4282836914062	301.7666931152344	387.6790771484376	-998.1380004882812	305.2712097167969	381.3818054199219	-947.6536254882812	280.0264892578125	309.9089050292969	-943.7247314453125	214.2626495361328	251.0671691894533	-2327.697265625	0.03267059847712517	0.007869619876146318	-0.03953919932246208	0.008439579978585243	0.01291720010340214	-0.006610730197280645	0.008609569631516933	0.00692225992679596	-0.007706160191446543	0.006411360111087561	2.134639978408813	-2.09099006652832	2.015990018844604	2.775660037994385	-1.95386004447937	2.925440073013306	0	0	
2025	10.12	262.7606506347656	251.2699890136719	-105.2460098266601	613.318359375	752.3115234375001	-1217.26708984375	616.7546997070312	816.7402954101564	-1142.464477539062	610.2344970703125	812.3768310546876	-1298.176147460938	475.2688598632812	962.5975952148439	-1217.112060546875	291.3705749511719	1041.551635742188	-1223.55517578125	257.3561401367188	1053.2890625	-1223.606567382812	197.7250671386719	1058.794555664062	-1170.3359375	195.4625396728516	1057.790283203125	-1220.154296875	134.7107543945312	1049.513671875	-1222.212280273438	50.78292083740234	1070.177490234375	-1224.094604492188	-3.557823896408081	1045.565063476562	-1170.772827148438	-7.874882221221924	1049.502197265625	-1220.704956054688	-67.71678161621094	997.9575195312501	-1239.14453125	-55.54522705078125	1000.315368652344	-1189.6650390625	-114.813591003418	973.6203613281251	-1199.649658203125	28.36489105224609	727.8106079101564	-1450.097900390625	13.04053401947021	649.3365478515626	-1443.654663085938	57.32261657714844	672.9992065429689	-1450.273681640625	112.206787109375	346.6111145019532	-1463.262939453125	71.57604217529297	279.3936157226564	-1456.359619140625	120.7555389404297	285.2686767578126	-1458.7490234375	43.43065643310547	65.96519470214852	-1379.168090820312	253.5131683349609	74.2807159423829	-1385.28955078125	209.7748260498047	58.70519256591806	-1490.555297851562	36.86314392089844	702.2341308593751	-980.9091796875	108.3856582641602	667.5504760742189	-972.1544799804688	63.16613388061523	646.0869140625001	-975.376220703125	98.78459930419922	349.7182922363282	-952.9442138671875	139.5463562011719	281.4566345214844	-952.0390014648438	90.67379760742188	289.5145263671876	-960.8518676757812	50.81999588012695	70.48366546630866	-1055.083618164062	261.3090515136719	74.31006622314459	-1024.269775390625	205.1739349365234	63.22937393188482	-931.3321533203125	397.4948120117188	807.9597778320314	-1226.470825195312	244.2246398925781	772.9075317382814	-1215.632446289062	422.44189453125	846.2208862304689	-1417.09765625	365.7994995117188	741.4553833007814	-1492.905639648438	323.4094848632812	695.0807495117189	-1515.462524414062	363.3233642578125	675.6132812500001	-1489.212036132812	305.8687438964844	462.3100585937501	-1499.404174804688	274.4257507324219	405.805633544922	-1510.563354492188	305.577392578125	404.0691223144532	-1471.72314453125	270.0395202636719	314.7510681152345	-1489.5908203125	440.8014831542969	832.0253906250001	-1040.313110351562	389.6913757324219	688.3713378906251	-991.2827758789062	368.3080749511719	633.0712890625001	-1018.707763671875	373.7907104492188	628.6776123046876	-968.7703857421875	320.8544616699219	441.2767639160157	-966.4751586914062	301.7468566894531	387.7997436523438	-998.254150390625	305.1381530761719	381.4729614257813	-947.7579345703125	279.9529724121094	310.0036315917969	-943.9454345703125	214.2036285400391	251.069793701172	-2327.697509765625	0.03216030076146126	0.007842170074582102	-0.0407572016119957	0.008463339880108833	0.01302629988640547	-0.006654310040175914	0.008593739941716194	0.006898649968206883	-0.007667160127311945	0.005512849893420935	2.13070011138916	-2.08991003036499	2.019570112228394	2.777489900588989	-1.949309945106506	2.925869941711426	0	0	
